<?xml version="1.0" standalone="no"?>
<!DOCTYPE svg PUBLIC "-//W3C//DTD SVG 20010904//EN"
 "http://www.w3.org/TR/2001/REC-SVG-20010904/DTD/svg10.dtd">
<svg version="1.0" xmlns="http://www.w3.org/2000/svg"
 width="260.000000pt" height="260.000000pt" viewBox="0 0 260.000000 260.000000"
 preserveAspectRatio="xMidYMid meet">
<metadata>
Created by potrace 1.11, written by Peter Selinger 2001-2013
</metadata>
<g transform="translate(0.000000,260.000000) scale(0.100000,-0.100000)"
fill="#000000" stroke="none">
<path d="M498 2376 c-167 -35 -309 -173 -353 -341 -42 -163 3 -323 124 -446
66 -66 66 -66 59 -110 -29 -178 8 -396 95 -564 68 -132 205 -280 312 -339 17
-9 46 -26 65 -38 82 -49 242 -95 356 -102 11 -1 41 -19 65 -40 52 -45 187
-126 209 -126 9 0 20 -4 25 -9 10 -8 76 -26 140 -39 17 -3 75 -5 130 -5 342 1
634 232 723 574 24 91 27 242 5 331 -8 35 -16 70 -18 79 -7 32 -64 149 -95
194 -45 65 -147 164 -213 205 -48 30 -60 44 -82 97 -102 239 -324 430 -590
509 -79 23 -108 26 -230 26 -84 0 -162 -6 -195 -14 l-54 -13 -51 48 c-50 49
-154 109 -210 121 -60 13 -161 14 -217 2z"/>
</g>
</svg>
